<?xml version="1.0" standalone="no"?>
<!DOCTYPE svg PUBLIC "-//W3C//DTD SVG 20010904//EN"
 "http://www.w3.org/TR/2001/REC-SVG-20010904/DTD/svg10.dtd">
<svg version="1.0" xmlns="http://www.w3.org/2000/svg"
 width="792.000000pt" height="792.000000pt" viewBox="0 0 792.000000 792.000000"
 preserveAspectRatio="xMidYMid meet">
<metadata>
Created by potrace 1.14, written by Peter Selinger 2001-2017
</metadata>
<g transform="translate(0.000000,792.000000) scale(0.100000,-0.100000)"
fill="#000000" stroke="none">
<path d="M760 7714 c-83 -14 -227 -75 -237 -100 -3 -8 -10 -14 -15 -14 -13 0
-97 -91 -104 -112 -3 -10 -10 -18 -15 -18 -6 0 -8 -4 -5 -9 3 -5 -1 -14 -9
-21 -8 -7 -15 -21 -15 -31 0 -11 -4 -19 -8 -19 -5 0 -16 -25 -26 -56 -29 -93
-37 -140 -38 -234 -1 -171 50 -357 155 -565 44 -87 162 -279 192 -311 5 -6 17
-22 25 -34 8 -12 20 -28 25 -34 6 -6 32 -38 58 -71 60 -73 77 -85 78 -53 0 13
3 34 5 48 8 41 76 234 90 255 8 11 14 27 14 37 0 10 4 18 9 18 5 0 12 14 16
30 4 17 10 30 14 30 4 0 18 23 31 50 13 28 27 50 32 50 4 0 8 5 8 12 0 20 134
191 213 270 130 132 332 281 466 345 66 31 88 65 130 193 30 90 30 138 2 162
-29 23 -48 23 -105 -2 -51 -22 -61 -24 -61 -12 -1 4 -7 32 -14 62 -16 64 -44
116 -73 131 -45 24 -121 -16 -182 -97 l-33 -43 -58 30 c-32 16 -76 34 -99 41
-23 6 -46 15 -51 19 -6 4 -22 10 -35 13 -14 4 -54 13 -90 22 -64 15 -241 26
-290 18z"/>
<path d="M6311 7704 c-22 -16 -57 -83 -65 -127 -2 -12 -7 -34 -11 -50 l-7 -27
-32 19 c-46 29 -94 35 -122 16 -37 -24 -33 -93 11 -207 20 -51 41 -98 47 -106
7 -7 37 -27 69 -42 49 -25 265 -164 279 -179 3 -3 34 -31 70 -61 80 -67 139
-127 206 -205 58 -67 154 -208 154 -224 0 -6 5 -11 10 -11 6 0 10 -4 10 -9 0
-5 16 -37 34 -70 19 -34 33 -61 31 -61 -2 0 9 -28 24 -62 16 -35 41 -108 56
-163 15 -55 29 -106 31 -114 5 -16 24 3 104 104 30 39 57 72 60 75 4 3 32 46
65 95 32 50 69 106 81 126 13 19 24 38 24 42 0 3 13 28 28 54 16 26 30 53 32
58 1 6 8 24 16 40 7 17 19 46 27 65 34 80 71 211 83 299 15 111 -2 282 -37
366 -7 17 -13 32 -13 35 -2 15 -52 100 -58 100 -5 0 -8 6 -8 13 0 18 -82 100
-136 138 -84 57 -167 81 -290 85 -159 3 -309 -32 -479 -111 l-69 -33 -15 21
c-9 12 -35 41 -59 65 -63 63 -107 76 -151 46z"/>
<path d="M3758 7575 c-2 -2 -37 -6 -78 -9 -41 -4 -97 -9 -125 -12 -27 -3 -70
-7 -95 -9 -25 -2 -61 -6 -80 -8 -40 -6 -123 -18 -161 -23 -14 -2 -79 -13 -145
-25 -65 -12 -128 -23 -139 -25 -11 -1 -20 -3 -20 -4 0 -2 -33 -9 -65 -14 -38
-7 -174 -39 -200 -48 -23 -9 -162 -48 -187 -54 -35 -7 -250 -84 -280 -99 -15
-8 -30 -12 -35 -9 -4 3 -8 1 -8 -3 0 -9 -71 -39 -79 -34 -2 2 -7 -1 -10 -6 -7
-10 -137 -73 -151 -73 -6 0 -10 -4 -10 -8 0 -5 -22 -19 -50 -32 -27 -13 -50
-27 -50 -32 0 -4 -4 -8 -9 -8 -5 0 -37 -19 -72 -42 -34 -24 -77 -53 -95 -65
-37 -25 -254 -236 -254 -247 0 -4 -9 -16 -20 -28 -11 -12 -32 -40 -47 -62 -15
-23 -30 -43 -33 -46 -12 -12 -83 -125 -81 -129 2 -2 -1 -7 -7 -10 -22 -15
-262 -458 -262 -485 0 -5 -7 -17 -16 -27 -8 -9 -17 -23 -18 -31 -1 -7 -15 -40
-30 -73 -39 -82 -158 -358 -160 -370 -1 -5 -4 -14 -8 -20 -3 -5 -34 -82 -68
-170 -34 -88 -73 -189 -87 -225 -14 -36 -27 -73 -28 -83 -2 -9 -7 -23 -12 -30
-4 -6 -8 -16 -10 -22 -1 -5 -25 -75 -53 -155 -28 -80 -62 -176 -75 -215 -51
-153 -137 -421 -140 -438 -2 -9 -7 -22 -10 -27 -3 -5 -8 -18 -10 -27 -2 -10
-16 -56 -30 -103 -14 -47 -28 -92 -30 -100 -1 -8 -19 -69 -39 -135 -20 -66
-38 -127 -40 -135 -2 -8 -5 -22 -8 -30 -3 -8 -11 -35 -17 -60 -7 -25 -14 -52
-17 -60 -3 -13 44 -101 74 -136 5 -5 15 -21 22 -34 7 -13 17 -29 22 -34 7 -10
259 -394 283 -434 6 -9 13 -21 17 -26 34 -48 118 -179 118 -184 0 -3 7 -14 17
-24 15 -16 15 -18 0 -18 -9 0 -33 9 -54 19 -21 11 -87 40 -148 66 -123 52
-151 64 -287 124 -26 12 -51 21 -57 21 -21 0 127 -264 244 -435 140 -204 356
-450 515 -585 14 -12 39 -34 55 -48 17 -15 47 -39 67 -54 20 -15 42 -34 50
-41 24 -24 232 -163 303 -202 39 -21 72 -41 75 -45 6 -6 278 -141 333 -164 20
-9 52 -23 70 -31 59 -26 261 -102 347 -129 47 -15 92 -30 100 -33 8 -3 20 -7
25 -8 6 -2 37 -11 70 -20 33 -10 61 -17 62 -17 2 1 26 -6 55 -14 28 -9 60 -18
70 -20 10 -2 26 -6 36 -9 84 -22 322 -68 358 -69 40 0 14 -21 -69 -54 -45 -18
-86 -34 -92 -35 -5 -1 -12 -4 -15 -7 -3 -3 -47 -23 -98 -44 -51 -22 -91 -40
-90 -41 11 -10 165 -98 174 -99 6 -1 23 -9 37 -19 15 -9 28 -17 30 -17 3 0 26
-10 53 -22 27 -12 51 -23 54 -23 3 -1 16 -7 30 -12 207 -89 543 -185 694 -199
22 -2 46 -6 53 -8 68 -26 582 -28 708 -3 11 3 42 8 68 11 27 4 59 9 70 12 12
2 37 7 56 10 19 3 45 10 58 15 13 5 23 7 23 4 0 -2 15 1 33 6 17 6 39 12 47
14 69 18 167 48 225 70 39 15 90 34 115 42 25 9 48 20 51 25 3 6 10 10 15 10
5 0 20 5 34 11 14 6 27 11 30 11 8 2 169 84 233 118 31 18 57 36 57 40 0 9
-36 26 -243 113 -132 56 -148 66 -109 70 32 3 107 16 147 25 59 14 238 53 251
56 124 23 558 166 709 234 22 10 65 28 95 41 30 13 58 28 62 33 4 6 8 8 8 4 0
-10 287 137 307 157 8 8 19 15 24 15 12 0 153 91 157 101 2 5 8 9 13 9 20 0
231 165 333 260 83 77 175 170 229 233 29 33 61 70 72 83 11 12 27 32 35 44 8
13 20 28 25 34 6 6 24 29 40 51 17 22 32 42 35 45 3 3 23 32 45 65 22 33 42
62 45 65 3 3 10 14 17 25 6 11 32 54 56 95 47 80 105 187 125 233 11 26 11 27
-7 17 -19 -10 -71 -32 -81 -35 -3 0 -23 -9 -45 -19 -22 -10 -49 -22 -60 -26
-11 -4 -42 -18 -70 -30 -279 -125 -315 -136 -273 -85 12 14 158 236 158 240 0
4 227 348 239 362 6 7 11 15 11 18 0 3 31 52 69 108 67 100 78 132 56 166 -3
6 -8 19 -10 29 -2 10 -24 90 -50 178 -25 87 -48 166 -50 174 -2 8 -4 16 -5 18
-2 1 -3 5 -4 10 -3 13 -37 127 -42 142 -3 8 -5 16 -5 17 0 2 -7 22 -15 45 -9
24 -17 50 -19 58 -2 8 -10 35 -18 60 -8 25 -38 117 -66 205 -29 88 -56 169
-60 180 -12 29 -42 117 -46 135 -2 8 -16 47 -30 85 -15 39 -33 90 -41 115 -8
25 -19 54 -24 65 -4 11 -17 45 -28 75 -11 30 -32 84 -46 120 -38 101 -47 125
-48 130 -1 3 -14 37 -30 75 -17 39 -46 108 -65 155 -19 47 -44 105 -55 130
-12 25 -29 63 -38 85 -10 22 -32 70 -49 108 -17 37 -31 72 -31 77 0 6 -5 10
-12 10 -6 0 -9 2 -6 5 9 9 -135 288 -224 434 -21 34 -38 67 -38 72 0 5 -4 9
-10 9 -5 0 -10 4 -10 9 0 9 -50 88 -77 121 -6 8 -33 44 -60 80 -26 36 -93 109
-148 163 -124 122 -129 127 -143 127 -5 0 -12 4 -14 8 -5 13 -127 96 -193 132
-33 19 -67 40 -77 47 -9 8 -22 16 -30 17 -12 2 -145 63 -191 87 -22 12 -166
69 -187 74 -8 2 -62 20 -120 39 -57 19 -108 32 -112 30 -4 -3 -8 -1 -8 4 0 5
-6 9 -12 9 -7 1 -56 12 -108 26 -100 26 -226 55 -272 62 -16 3 -40 7 -55 10
-59 12 -69 14 -103 19 -19 3 -46 8 -60 11 -24 4 -40 7 -145 20 -27 4 -61 9
-75 11 -14 3 -50 7 -80 9 -30 3 -77 8 -105 11 -27 4 -75 8 -105 11 -66 5 -488
12 -492 8z m282 -1120 c61 -8 93 -16 112 -26 10 -5 18 -7 18 -5 0 3 12 1 28
-5 15 -6 34 -12 42 -14 24 -5 171 -78 220 -109 143 -91 326 -266 423 -405 18
-25 34 -48 37 -51 6 -6 75 -115 110 -173 31 -53 103 -201 132 -272 33 -78 41
-99 43 -105 1 -3 4 -12 8 -20 19 -48 72 -228 89 -305 11 -49 22 -99 24 -110 3
-11 7 -36 9 -55 3 -19 7 -46 9 -59 27 -126 24 -473 -4 -570 -5 -17 -6 -31 -3
-31 3 0 0 -7 -7 -15 -7 -8 -10 -15 -7 -15 7 0 -23 -90 -53 -154 -19 -44 -54
-101 -85 -145 -15 -21 -167 -174 -191 -192 -57 -44 -153 -103 -213 -131 -36
-17 -68 -33 -71 -37 -3 -3 -14 -8 -25 -9 -11 -2 -24 -7 -30 -12 -9 -7 -151
-57 -185 -65 -8 -2 -62 -15 -120 -29 -58 -14 -118 -27 -135 -30 -162 -26 -250
-32 -340 -22 -348 38 -646 135 -875 285 -47 30 -122 91 -166 136 -104 103
-149 169 -215 320 -19 45 -45 159 -56 250 -6 52 -6 329 1 380 12 90 16 121 21
145 3 14 7 39 10 57 6 47 52 227 81 316 24 78 99 272 112 292 4 5 7 12 7 15 1
6 64 130 92 180 184 325 441 585 693 701 91 42 188 76 235 83 17 2 30 5 30 6
0 1 20 4 45 7 25 2 46 6 48 7 3 3 42 0 102 -9z m-2070 -321 c19 -2 43 -7 52
-10 10 -3 30 -7 45 -10 16 -2 37 -6 49 -9 12 -3 39 -7 60 -10 21 -4 47 -8 56
-11 20 -6 44 -10 94 -18 22 -4 73 -13 114 -21 41 -9 89 -17 105 -20 17 -2 55
-9 85 -15 64 -13 110 -21 127 -24 31 -5 16 -15 -75 -53 -53 -22 -200 -84 -325
-137 l-228 -97 -53 24 c-128 59 -224 217 -241 397 -3 37 0 38 52 28 27 -5 64
-11 83 -14z m4114 -27 c-3 -23 -10 -60 -16 -82 -6 -22 -11 -44 -13 -50 -1 -5
-13 -35 -27 -65 -32 -68 -108 -147 -179 -184 l-54 -28 -135 57 c-74 31 -146
62 -160 68 -14 6 -27 11 -30 12 -12 4 -71 29 -143 61 -43 19 -85 34 -92 34 -8
0 -15 4 -15 10 0 5 -16 12 -35 16 -35 6 -51 35 -17 29 9 -1 22 0 27 4 6 3 19
7 30 8 22 4 107 20 141 27 12 2 37 7 55 10 57 10 90 16 194 36 55 11 114 22
130 24 17 3 46 8 65 12 19 3 44 8 55 9 11 2 20 4 20 5 0 1 16 4 35 7 19 2 62
10 95 17 33 7 63 11 67 9 4 -2 5 -22 2 -46z"/>
<path d="M3849 6206 c-2 -2 -25 -7 -50 -10 -25 -3 -69 -13 -97 -21 -29 -9 -55
-15 -58 -15 -4 1 -10 -2 -13 -7 -3 -4 -28 -19 -55 -33 -45 -23 -146 -113 -187
-166 -21 -27 -74 -141 -83 -179 -18 -72 -18 -73 26 -105 24 -16 49 -34 55 -40
7 -6 33 -24 58 -41 24 -16 47 -34 50 -40 9 -14 35 -11 35 5 0 24 37 103 58
124 27 27 85 23 112 -8 18 -21 26 -48 21 -74 -7 -35 11 -52 79 -76 55 -19 70
-29 71 -45 1 -28 7 -240 8 -295 0 -25 1 -58 2 -75 0 -16 1 -59 2 -94 l2 -64
-65 -14 c-36 -7 -76 -15 -90 -18 -55 -10 -218 -70 -230 -84 -3 -3 -17 -13 -31
-21 -66 -38 -164 -149 -225 -255 -39 -68 -63 -115 -58 -115 3 0 87 42 187 93
172 88 293 143 341 153 110 24 167 30 261 29 119 -3 151 -7 235 -32 30 -9 60
-17 65 -18 6 -2 45 -19 87 -39 42 -20 81 -36 86 -36 6 0 12 -3 14 -7 3 -8 263
-143 274 -143 10 0 -65 129 -111 194 -87 121 -171 190 -285 233 -113 43 -90
36 -207 59 -106 21 -96 4 -93 154 7 360 9 402 21 416 6 8 17 14 24 14 7 0 35
10 64 21 46 19 51 25 52 53 2 94 54 141 119 106 21 -11 70 -105 70 -133 0 -29
1 -28 154 78 86 60 87 60 81 97 -3 20 -10 49 -17 65 -6 15 -12 33 -14 40 -7
37 -76 137 -135 196 -49 50 -86 76 -141 101 -66 31 -96 41 -193 65 -31 7 -269
13 -276 7z"/>
<path d="M3935 4603 c-165 -17 -298 -81 -324 -155 -10 -28 -7 -33 54 -95 72
-73 82 -74 155 -28 40 25 55 24 41 -4 -23 -45 13 -127 70 -157 28 -14 32 -14
65 7 19 12 42 31 49 43 19 28 26 86 14 109 -13 24 3 22 59 -8 26 -14 52 -25
58 -25 12 0 35 18 97 76 68 64 42 130 -70 180 -57 25 -173 58 -180 50 -2 -2
-17 -1 -31 3 -15 3 -40 5 -57 4z"/>
</g>
</svg>
