<svg id="visual" viewBox="0 0 540 960" width="540" height="960" xmlns="http://www.w3.org/2000/svg" xmlns:xlink="http://www.w3.org/1999/xlink" version="1.1"><rect x="0" y="0" width="540" height="960" fill="#242424"></rect><defs><linearGradient id="grad1_0" x1="0%" y1="100%" x2="100%" y2="0%"><stop offset="30%" stop-color="#909090" stop-opacity="1"></stop><stop offset="70%" stop-color="#909090" stop-opacity="1"></stop></linearGradient></defs><defs><linearGradient id="grad1_1" x1="0%" y1="100%" x2="100%" y2="0%"><stop offset="30%" stop-color="#909090" stop-opacity="1"></stop><stop offset="70%" stop-color="#737373" stop-opacity="1"></stop></linearGradient></defs><defs><linearGradient id="grad1_2" x1="0%" y1="100%" x2="100%" y2="0%"><stop offset="30%" stop-color="#575757" stop-opacity="1"></stop><stop offset="70%" stop-color="#737373" stop-opacity="1"></stop></linearGradient></defs><defs><linearGradient id="grad1_3" x1="0%" y1="100%" x2="100%" y2="0%"><stop offset="30%" stop-color="#575757" stop-opacity="1"></stop><stop offset="70%" stop-color="#3d3d3d" stop-opacity="1"></stop></linearGradient></defs><defs><linearGradient id="grad1_4" x1="0%" y1="100%" x2="100%" y2="0%"><stop offset="30%" stop-color="#242424" stop-opacity="1"></stop><stop offset="70%" stop-color="#3d3d3d" stop-opacity="1"></stop></linearGradient></defs><defs><linearGradient id="grad2_0" x1="0%" y1="100%" x2="100%" y2="0%"><stop offset="30%" stop-color="#909090" stop-opacity="1"></stop><stop offset="70%" stop-color="#909090" stop-opacity="1"></stop></linearGradient></defs><defs><linearGradient id="grad2_1" x1="0%" y1="100%" x2="100%" y2="0%"><stop offset="30%" stop-color="#737373" stop-opacity="1"></stop><stop offset="70%" stop-color="#909090" stop-opacity="1"></stop></linearGradient></defs><defs><linearGradient id="grad2_2" x1="0%" y1="100%" x2="100%" y2="0%"><stop offset="30%" stop-color="#737373" stop-opacity="1"></stop><stop offset="70%" stop-color="#575757" stop-opacity="1"></stop></linearGradient></defs><defs><linearGradient id="grad2_3" x1="0%" y1="100%" x2="100%" y2="0%"><stop offset="30%" stop-color="#3d3d3d" stop-opacity="1"></stop><stop offset="70%" stop-color="#575757" stop-opacity="1"></stop></linearGradient></defs><defs><linearGradient id="grad2_4" x1="0%" y1="100%" x2="100%" y2="0%"><stop offset="30%" stop-color="#3d3d3d" stop-opacity="1"></stop><stop offset="70%" stop-color="#242424" stop-opacity="1"></stop></linearGradient></defs><g transform="translate(540, 960)"><path d="M-378 0C-373.1 -19.5 -368.2 -39.1 -361.5 -57.3C-354.8 -75.4 -346.2 -92.2 -342.4 -111.2C-338.5 -130.3 -339.3 -151.5 -331.5 -168.9C-323.6 -186.2 -307 -199.6 -292.1 -212.2C-277.1 -224.8 -263.9 -236.5 -253.9 -253.9C-243.8 -271.2 -237 -294.3 -222.2 -305.8C-207.4 -317.3 -184.5 -317.4 -166.2 -326.1C-147.8 -334.8 -134 -352.3 -116.2 -357.6C-98.4 -362.9 -76.7 -356.2 -56.6 -357.5C-36.6 -358.9 -18.3 -368.5 0 -378L0 0Z" fill="#303030"></path><path d="M-302.4 0C-298.5 -15.6 -294.6 -31.3 -289.2 -45.8C-283.8 -60.3 -277 -73.8 -273.9 -89C-270.8 -104.2 -271.5 -121.2 -265.2 -135.1C-258.9 -149 -245.6 -159.7 -233.6 -169.8C-221.7 -179.8 -211.1 -189.2 -203.1 -203.1C-195.1 -217 -189.6 -235.4 -177.7 -244.6C-165.9 -253.9 -147.6 -253.9 -132.9 -260.9C-118.3 -267.9 -107.2 -281.8 -93 -286.1C-78.7 -290.3 -61.3 -284.9 -45.3 -286C-29.3 -287.1 -14.6 -294.8 0 -302.4L0 0Z" fill="#4a4a4a"></path><path d="M-226.8 0C-223.9 -11.7 -220.9 -23.5 -216.9 -34.4C-212.9 -45.3 -207.7 -55.3 -205.4 -66.7C-203.1 -78.2 -203.6 -90.9 -198.9 -101.3C-194.1 -111.7 -184.2 -119.8 -175.2 -127.3C-166.3 -134.9 -158.3 -141.9 -152.3 -152.3C-146.3 -162.7 -142.2 -176.6 -133.3 -183.5C-124.4 -190.4 -110.7 -190.4 -99.7 -195.7C-88.7 -200.9 -80.4 -211.4 -69.7 -214.6C-59 -217.8 -46 -213.7 -34 -214.5C-22 -215.4 -11 -221.1 0 -226.8L0 0Z" fill="#656565"></path><path d="M-151.2 0C-149.2 -7.8 -147.3 -15.6 -144.6 -22.9C-141.9 -30.2 -138.5 -36.9 -137 -44.5C-135.4 -52.1 -135.7 -60.6 -132.6 -67.6C-129.4 -74.5 -122.8 -79.9 -116.8 -84.9C-110.9 -89.9 -105.6 -94.6 -101.5 -101.5C-97.5 -108.5 -94.8 -117.7 -88.9 -122.3C-82.9 -126.9 -73.8 -127 -66.5 -130.4C-59.1 -133.9 -53.6 -140.9 -46.5 -143C-39.4 -145.2 -30.7 -142.5 -22.7 -143C-14.6 -143.6 -7.3 -147.4 0 -151.2L0 0Z" fill="#818181"></path><path d="M-75.6 0C-74.6 -3.9 -73.6 -7.8 -72.3 -11.5C-71 -15.1 -69.2 -18.4 -68.5 -22.2C-67.7 -26.1 -67.9 -30.3 -66.3 -33.8C-64.7 -37.2 -61.4 -39.9 -58.4 -42.4C-55.4 -45 -52.8 -47.3 -50.8 -50.8C-48.8 -54.2 -47.4 -58.9 -44.4 -61.2C-41.5 -63.5 -36.9 -63.5 -33.2 -65.2C-29.6 -67 -26.8 -70.5 -23.2 -71.5C-19.7 -72.6 -15.3 -71.2 -11.3 -71.5C-7.3 -71.8 -3.7 -73.7 0 -75.6L0 0Z" fill="#909090"></path></g><g transform="translate(0, 0)"><path d="M378 0C369.9 18.9 361.8 37.7 356.6 56.5C351.3 75.2 348.9 93.8 343.3 111.6C337.8 129.3 329 146.1 321.7 163.9C314.3 181.6 308.4 200.3 299.3 217.5C290.2 234.7 278 250.5 263.8 263.8C249.5 277 233.4 287.8 217.5 299.3C201.6 310.9 185.9 323.2 168 329.7C150.1 336.1 130 336.7 111.9 344.3C93.7 351.9 77.5 366.6 59.1 373.3C40.8 380.1 20.4 379.1 0 378L0 0Z" fill="#303030"></path><path d="M302.4 0C295.9 15.1 289.4 30.2 285.2 45.2C281 60.2 279.1 75.1 274.7 89.2C270.2 103.4 263.2 116.9 257.3 131.1C251.5 145.3 246.7 160.2 239.5 174C232.2 187.8 222.4 200.4 211 211C199.6 221.6 186.7 230.2 174 239.5C161.2 248.7 148.7 258.6 134.4 263.7C120.1 268.9 104 269.3 89.5 275.4C75 281.5 62 293.2 47.3 298.7C32.6 304.1 16.3 303.3 0 302.4L0 0Z" fill="#4a4a4a"></path><path d="M226.8 0C221.9 11.3 217.1 22.6 213.9 33.9C210.8 45.1 209.3 56.3 206 66.9C202.7 77.6 197.4 87.7 193 98.3C188.6 109 185.1 120.2 179.6 130.5C174.1 140.8 166.8 150.3 158.3 158.3C149.7 166.2 140 172.7 130.5 179.6C120.9 186.5 111.5 193.9 100.8 197.8C90.1 201.7 78 202 67.1 206.6C56.2 211.1 46.5 219.9 35.5 224C24.5 228.1 12.2 227.4 0 226.8L0 0Z" fill="#656565"></path><path d="M151.2 0C148 7.5 144.7 15.1 142.6 22.6C140.5 30.1 139.6 37.5 137.3 44.6C135.1 51.7 131.6 58.5 128.7 65.6C125.7 72.7 123.4 80.1 119.7 87C116.1 93.9 111.2 100.2 105.5 105.5C99.8 110.8 93.4 115.1 87 119.7C80.6 124.4 74.3 129.3 67.2 131.9C60 134.4 52 134.7 44.7 137.7C37.5 140.8 31 146.6 23.7 149.3C16.3 152.1 8.2 151.6 0 151.2L0 0Z" fill="#818181"></path><path d="M75.6 0C74 3.8 72.4 7.5 71.3 11.3C70.3 15 69.8 18.8 68.7 22.3C67.6 25.9 65.8 29.2 64.3 32.8C62.9 36.3 61.7 40.1 59.9 43.5C58 46.9 55.6 50.1 52.8 52.8C49.9 55.4 46.7 57.6 43.5 59.9C40.3 62.2 37.2 64.6 33.6 65.9C30 67.2 26 67.3 22.4 68.9C18.7 70.4 15.5 73.3 11.8 74.7C8.2 76 4.1 75.8 0 75.6L0 0Z" fill="#909090"></path></g></svg>